<?xml version="1.0" encoding="UTF-8"?>
<svg id="Layer_1" data-name="Layer 1" xmlns="http://www.w3.org/2000/svg" viewBox="0 0 1478 1186">
  <defs>
    <style>
      .cls-1 {
        fill: #fff;
      }

      .cls-2 {
        fill: #e11b33;
      }

      .cls-3 {
        fill: #e51d37;
      }
    </style>
  </defs>
  <g>
    <path class="cls-2" d="M759.29,800.29c-3.87,3.51-31.06,25.59-31.9,27.61-3.88,9.34,12.95,29.67,13.47,39.96-12.48,1.61-9.54-10.3-13.72-16.72-.65-1.01.02-1.76-2.26-1.27.71,11.58,3.62,20.18-3.51,30.97-2.67.16-2.69-28.26-2.51-30.97-5.1,9.67-4.57,21.51-7,31.99-7.38-10.95-3.62-20.77-3-32-6.29,8.46-10.11,19.21-20.99,22.99.98-13.44,9.78-20.36,14.99-30.99-10.56,8.87-22.49,16.94-36.98,16.51l23.99-17.52-1.47-1.97-57.53,20.98c9.69-11.13,23.44-17.57,35.24-26.02,12.24-8.76,27.88-22.86,41.39-28.84,5.97-2.65,45.32-17.72,49.13-17.89,2.36-.11,10.89,3.41,11.2,5.37-1.23,4.09-5.85,5.37-8.53,7.81ZM732.81,804.82l-.45-1.96c-2-.31-16.88,6.87-19.5,8.5-1.2.74-5.58,2.46-4.98,4,3.29,8.4,21.16-8.01,24.93-10.54Z"/>
    <path class="cls-2" d="M778.29,903.98c3.51,3.87,25.59,31.06,27.61,31.9,9.34,3.88,29.67-12.95,39.96-13.47,1.61,12.48-10.3,9.54-16.72,13.72-1.01.65-1.76-.02-1.27,2.26,11.58-.71,20.18-3.62,30.97,3.51.16,2.67-28.26,2.69-30.97,2.51,9.67,5.1,21.51,4.57,31.99,7-10.95,7.38-20.77,3.62-32,3,8.46,6.29,19.21,10.11,22.99,20.99-13.44-.98-20.36-9.78-30.99-14.99,8.87,10.56,16.94,22.49,16.51,36.98l-17.52-23.99-1.97,1.47,20.98,57.53c-11.13-9.69-17.57-23.44-26.02-35.24-8.76-12.24-22.86-27.88-28.84-41.39-2.65-5.97-17.72-45.32-17.89-49.13-.11-2.36,3.41-10.89,5.37-11.2,4.09,1.23,5.37,5.85,7.81,8.53ZM782.82,930.46l-1.96.45c-.31,2,6.87,16.88,8.5,19.5.74,1.2,2.46,5.58,4,4.98,8.4-3.29-8.01-21.16-10.54-24.93Z"/>
    <path class="cls-2" d="M862.43,780.57c-3.51-3.87-25.59-31.06-27.61-31.9-9.34-3.88-29.67,12.95-39.96,13.47-1.61-12.48,10.3-9.54,16.72-13.72,1.01-.65,1.76.02,1.27-2.26-11.58.71-20.18,3.62-30.97-3.51-.16-2.67,28.26-2.69,30.97-2.51-9.67-5.1-21.51-4.57-31.99-7,10.95-7.38,20.77-3.62,32-3-8.46-6.29-19.21-10.11-22.99-20.99,13.44.98,20.36,9.78,30.99,14.99-8.87-10.56-16.94-22.49-16.51-36.98l17.52,23.99,1.97-1.47-20.98-57.53c11.13,9.69,17.57,23.44,26.02,35.24,8.76,12.24,22.86,27.88,28.84,41.39,2.65,5.97,17.72,45.32,17.89,49.13.11,2.36-3.41,10.89-5.37,11.2-4.09-1.23-5.37-5.85-7.81-8.53ZM857.9,754.09l1.96-.45c.31-2-6.87-16.88-8.5-19.5-.74-1.2-2.46-5.58-4-4.98-8.4,3.29,8.01,21.16,10.54,24.93Z"/>
    <path class="cls-2" d="M881.96,882.84c3.87-3.51,31.06-25.59,31.9-27.61,3.88-9.34-12.95-29.67-13.47-39.96,12.48-1.61,9.54,10.3,13.72,16.72.65,1.01-.02,1.76,2.26,1.27-.71-11.58-3.62-20.18,3.51-30.97,2.67-.16,2.69,28.26,2.51,30.97,5.1-9.67,4.57-21.51,7-31.99,7.38,10.95,3.62,20.77,3,32,6.29-8.46,10.11-19.21,20.99-22.99-.98,13.44-9.78,20.36-14.99,30.99,10.56-8.87,22.49-16.94,36.98-16.51l-23.99,17.52,1.47,1.97,57.53-20.98c-9.69,11.13-23.44,17.57-35.24,26.02-12.24,8.76-27.88,22.86-41.39,28.84-5.97,2.65-45.32,17.72-49.13,17.89-2.36.11-10.89-3.41-11.2-5.37,1.23-4.09,5.85-5.37,8.53-7.81ZM908.44,878.31l.45,1.96c2,.31,16.88-6.87,19.5-8.5,1.2-.74,5.58-2.46,4.98-4-3.29-8.4-21.16,8.01-24.93,10.54Z"/>
  </g>
  <path class="cls-3" d="M737.5,847.9c-1.41-2.39-2.97-5.52-4.18-9.36-.95-2.99-1.47-5.73-1.76-8.04,1.13-1.82,2.97-4.33,5.83-6.72,3.25-2.71,6.47-4.14,8.61-4.89,1.83,5.34,3.65,10.67,5.48,16.01,7.93,2.61,15.85,5.21,23.78,7.82,6.26-14.24,12.52-28.48,18.78-42.72,4.38,10.53,8.77,21.07,13.15,31.6,1.66-.61,3.33-1.22,4.99-1.84-5.26-11.5-10.52-23-15.78-34.49,5.98-12.51,11.96-25.03,17.95-37.54,2.16-1.19,5.01-2.51,8.48-3.52,3.23-.94,6.13-1.36,8.48-1.54,1.9,1.1,4.52,2.9,7.05,5.72,2.84,3.16,4.42,6.33,5.28,8.48l-15.96,5.06-9.36,23.78c14.28,6.36,28.57,12.72,42.85,19.09-10.23,4.78-20.47,9.57-30.7,14.35l2.33,5.32c11.46-5.85,22.92-11.7,34.38-17.55,12.12,6.1,24.23,12.21,36.35,18.31,1.37,1.63,3.28,4.31,4.62,8.04,1.48,4.1,1.62,7.7,1.54,9.9-1.21,1.77-2.93,3.92-5.29,6.06-2.67,2.42-5.29,4.05-7.34,5.11-2.29-5.26-4.57-10.53-6.86-15.79l-24.22-8.81-17.39,44.04-14.82-32.26-5.1,2.54c5.45,11.4,10.9,22.8,16.35,34.2-5.82,12.45-11.64,24.91-17.45,37.36-2.03,1.25-4.69,2.63-7.93,3.74-4.4,1.51-8.34,1.98-11.23,2.09-1.82-2.13-3.66-4.37-5.5-6.72-2.24-2.84-4.33-5.64-6.28-8.37,5.5-1.25,11.01-2.5,16.51-3.74l10.24-25.21c-14.52-6.11-29.04-12.21-43.56-18.32,10.04-4.61,20.07-9.22,30.11-13.82l-2.15-4.79c-11.17,5.26-22.34,10.51-33.51,15.77-12.26-6.12-24.51-12.24-36.77-18.37Z"/>
  <polygon class="cls-1" points="809 837.07 825.69 830.87 831.84 846.8 815.74 853.34 809 837.07"/>
</svg>